# xmcd
#
# Track frame offsets:
# 150
# 14550
# 27096
# 42456
# 56974
# 78969
# 92417
# 101743
# 114285
# 128600
#
# Disc length: 1958 seconds
#
#
# Revision: 3
# Processed by: cddbd v1.5.2PL0 Copyright (c) Steve Scherf et al.
# Submitted via: FreeRIP 2.943 
#
DISCID=7707a40a
DTITLE=Sampler - 2008 - Musikexpress Vol. 133 - Musikexpress Vol. 133
DYEAR=2008
DGENRE=Rock
TTITLE0=The Wombats - Backfire At The Disco
TTITLE1=Los Campesinos! - Death To Los Campesinos!
TTITLE2=Get Well Soon - Christmas In Adventure Parks
TTITLE3=The View - Superstar Tradesman
TTITLE4=Vietnam - Priest, Poet and The Pig
TTITLE5=Kilians - Fight The Start
TTITLE6=The Pigeon Detectives - I Found Out
TTITLE7=Bonde Do Role - Office Boy (Architecture In Helsinki Remix)
TTITLE8=Miss Platnum - Give Me The Food
TTITLE9=Polarkreis 18 - Under This Big Moon
EXTD=
EXTT0=
EXTT1=
EXTT2=
EXTT3=
EXTT4=
EXTT5=
EXTT6=
EXTT7=
EXTT8=
EXTT9=
PLAYORDER=
